<?xml version="1.0" encoding="UTF-8"?>
<svg width="38px" height="74px" viewBox="0 0 38 74" version="1.1" xmlns="http://www.w3.org/2000/svg" xmlns:xlink="http://www.w3.org/1999/xlink">
    <!-- Generator: Sketch 63.1 (92452) - https://sketch.com -->
    <title>Group 24</title>
    <desc>Created with Sketch.</desc>
    <defs>
        <path d="M0.719625,51.57 C0.719625,53.5428947 0.975333333,55.14 1.48991667,56.3621053 C2.00370833,57.5857895 2.736,58.5513158 3.68520833,59.2610526 C4.63441667,59.9715789 5.80133333,60.4436842 7.18595833,60.6805263 C8.569,60.9173684 10.13175,61.0357895 11.8734167,61.0357895 C13.6119167,61.0357895 15.3322083,60.8968421 17.0342917,60.6221053 L17.0849583,60.6142105 C19.28025,60.255 20.8905,58.3634211 20.8905,56.145 L20.8905,0.449210526 L0.719625,7.31605263 L0.719625,51.57" id="path-1"></path>
        <linearGradient x1="49.9980376%" y1="52.906454%" x2="49.9980376%" y2="15.2209322%" id="linearGradient-3">
            <stop stop-color="#007A66" offset="0%"></stop>
            <stop stop-color="#143B35" offset="100%"></stop>
        </linearGradient>
    </defs>
    <g id="Approved-Homepage" stroke="none" stroke-width="1" fill="none" fill-rule="evenodd">
        <g id="Homepage-1.2" transform="translate(-180.000000, -793.000000)">
            <g id="Group-24" transform="translate(180.000000, 793.000000)">
                <g id="Group-9" transform="translate(16.485667, 12.680526)">
                    <mask id="mask-2" fill="white">
                        <use xlink:href="#path-1"></use>
                    </mask>
                    <g id="Clip-8"></g>
                    <path d="M0.719625,51.57 C0.719625,53.5428947 0.975333333,55.14 1.48991667,56.3621053 C2.00370833,57.5857895 2.736,58.5513158 3.68520833,59.2610526 C4.63441667,59.9715789 5.80133333,60.4436842 7.18595833,60.6805263 C8.569,60.9173684 10.13175,61.0357895 11.8734167,61.0357895 C13.6119167,61.0357895 15.3322083,60.8968421 17.0342917,60.6221053 L17.0849583,60.6142105 C19.28025,60.255 20.8905,58.3634211 20.8905,56.145 L20.8905,0.449210526 L0.719625,7.31605263 L0.719625,51.57" id="Fill-7" fill="url(#linearGradient-3)" mask="url(#mask-2)"></path>
                </g>
                <path d="M26.341125,-2.24381917e-14 L21.9513333,-2.24381917e-14 L8.661625,4.49605263 C2.88641667,6.38842105 0,9.70263158 0,14.4347368 C0,16.9602632 0.592958333,18.9323684 1.77966667,20.3510526 L1.81529167,20.3936842 C3.58229167,22.4984211 6.45604167,23.3194737 9.084375,22.5071053 L17.2052917,19.9965789 L37.3761667,13.1297368 L37.3761667,11.0036842 C37.3761667,7.61289474 36.3857917,4.93026316 34.4097917,2.95736842 C32.4314167,0.986842105 29.7413333,-2.24381917e-14 26.341125,-2.24381917e-14 Z" id="Fill-10" fill="#007A66"></path>
            </g>
        </g>
    </g>
</svg>