<?xml version="1.0" encoding="UTF-8"?>
<svg width="52px" height="72px" viewBox="0 0 52 72" version="1.1" xmlns="http://www.w3.org/2000/svg" xmlns:xlink="http://www.w3.org/1999/xlink">
    <!-- Generator: Sketch 63.1 (92452) - https://sketch.com -->
    <title>Group 8</title>
    <desc>Created with Sketch.</desc>
    <defs>
        <path d="M51.3787871,45.8457963 L51.3653614,45.8063088 C50.7540946,43.9211748 48.9976899,42.6449382 47.0154166,42.6449382 L22.6326649,42.6449382 L37.6055414,30.6438922 C45.4351261,24.3930184 49.8822102,17.8578344 50.9507424,11.0383403 C51.7539185,-5.78886991 18.4477779,2.2831682 18.4477779,2.2831682 L18.4477779,2.2847477 C19.5281564,2.14259264 20.6559198,2.06914586 21.8334376,2.06914586 C24.5762405,2.06914586 26.8799422,2.68041261 28.7477017,3.89820762 C30.6138817,5.11837188 31.5473666,6.79501183 31.5473666,8.92654796 C31.5473666,9.76605256 31.3759908,10.6418857 31.0340289,11.5564166 C30.6904875,12.4701577 30.119498,13.4612943 29.3186912,14.528247 C28.5186741,15.5951997 27.4698857,16.79641 26.1762746,18.127929 C24.8787148,19.4626071 23.2423522,20.9678712 21.2608686,22.6429317 L5.48797503,36.1302878 C4.19199474,37.1980302 3.011318,38.6266886 1.94436531,40.4162628 C0.877412615,42.2074166 0.345120894,44.398184 0.345120894,46.9877753 C0.345120894,49.4273141 0.819760841,51.5414757 1.77377924,53.3318397 L1.80221025,53.384753 C3.2529816,56.0849093 6.10950854,57.7323285 9.17452957,57.7323285 L45.3782641,57.7323285 C47.358958,57.7323285 48.9582024,57.1431748 50.1783666,55.9601288 C51.3961616,54.779452 52.0074284,52.8169225 52.0074284,50.0741196 C52.0074284,48.5506912 51.7957753,47.1417766 51.3787871,45.8457963" id="path-1"></path>
        <linearGradient x1="63.6464847%" y1="48.7321079%" x2="78.026217%" y2="19.5652024%" id="linearGradient-3">
            <stop stop-color="#007A66" offset="0%"></stop>
            <stop stop-color="#163E37" offset="100%"></stop>
        </linearGradient>
    </defs>
    <g id="Approved-Homepage" stroke="none" stroke-width="1" fill="none" fill-rule="evenodd">
        <g id="Homepage-1.2" transform="translate(-582.000000, -793.000000)">
            <g id="Group-8" transform="translate(582.000000, 793.000000)">
                <g id="Group-17" transform="translate(0.000000, 13.474720)">
                    <mask id="mask-2" fill="white">
                        <use xlink:href="#path-1"></use>
                    </mask>
                    <g id="Clip-16"></g>
                    <path d="M51.3787871,45.8457963 L51.3653614,45.8063088 C50.7540946,43.9211748 48.9976899,42.6449382 47.0154166,42.6449382 L22.6326649,42.6449382 L37.6055414,30.6438922 C45.4351261,24.3930184 49.8822102,17.8578344 50.9507424,11.0383403 C51.7539185,-5.78886991 18.4477779,2.2831682 18.4477779,2.2831682 L18.4477779,2.2847477 C19.5281564,2.14259264 20.6559198,2.06914586 21.8334376,2.06914586 C24.5762405,2.06914586 26.8799422,2.68041261 28.7477017,3.89820762 C30.6138817,5.11837188 31.5473666,6.79501183 31.5473666,8.92654796 C31.5473666,9.76605256 31.3759908,10.6418857 31.0340289,11.5564166 C30.6904875,12.4701577 30.119498,13.4612943 29.3186912,14.528247 C28.5186741,15.5951997 27.4698857,16.79641 26.1762746,18.127929 C24.8787148,19.4626071 23.2423522,20.9678712 21.2608686,22.6429317 L5.48797503,36.1302878 C4.19199474,37.1980302 3.011318,38.6266886 1.94436531,40.4162628 C0.877412615,42.2074166 0.345120894,44.398184 0.345120894,46.9877753 C0.345120894,49.4273141 0.819760841,51.5414757 1.77377924,53.3318397 L1.80221025,53.384753 C3.2529816,56.0849093 6.10950854,57.7323285 9.17452957,57.7323285 L45.3782641,57.7323285 C47.358958,57.7323285 48.9582024,57.1431748 50.1783666,55.9601288 C51.3961616,54.779452 52.0074284,52.8169225 52.0074284,50.0741196 C52.0074284,48.5506912 51.7957753,47.1417766 51.3787871,45.8457963" id="Fill-15" fill="url(#linearGradient-3)" mask="url(#mask-2)"></path>
                </g>
                <path d="M49.3783495,12.9147871 C48.1581853,10.3259855 46.3670315,8.07756636 44.0064678,6.17268857 C41.6435348,4.26781078 38.7862181,2.76254665 35.433728,1.65689619 C32.0796583,0.55282523 28.2327845,-6.92779167e-14 23.8899474,-6.92779167e-14 C17.5640473,-6.92779167e-14 12.535707,0.971392904 8.80255716,2.91417871 C5.06861761,4.85775427 3.20164783,7.8114205 3.20164783,11.7720184 C3.20164783,13.6010802 3.61942576,15.2019041 4.45893035,16.5729106 L4.48420237,16.6139777 C5.7588594,18.6823338 8.4218975,19.4025861 10.5992392,18.3253666 C11.5343035,17.8625729 12.554661,17.4124152 13.6603114,16.9725243 C15.1339855,16.3888988 16.730071,15.9853364 18.4477779,15.7594678 L18.4477779,15.7578883 C18.4477779,15.7578883 51.7539185,7.6858502 50.9507424,24.5130604 C51.119749,23.4350512 51.2074113,22.3515138 51.2074113,21.2592891 C51.2074113,18.2874586 50.5961445,15.5067477 49.3783495,12.9147871" id="Fill-14" fill="#007A66"></path>
            </g>
        </g>
    </g>
</svg>