<?xml version="1.0" encoding="UTF-8"?>
<svg width="53px" height="73px" viewBox="0 0 53 73" version="1.1" xmlns="http://www.w3.org/2000/svg" xmlns:xlink="http://www.w3.org/1999/xlink">
    <!-- Generator: Sketch 63.1 (92452) - https://sketch.com -->
    <title>Group 28</title>
    <desc>Created with Sketch.</desc>
    <defs>
        <path d="M49.4450448,5.98691489 C48.3747612,4.61948936 47.1541791,3.48114894 45.7809254,2.56874468 C45.2746567,2.23338298 44.7525672,1.91848936 44.2162388,1.62406383 C42.7947313,0.964361702 41.7655821,0.495170213 41.4317612,0.343234043 C31.4084328,6.57261702 21.7236716,8.60682979 21.7236716,8.60682979 L23.2266567,8.60682979 C26.8907761,8.60682979 29.4664179,9.17678723 30.9543731,10.3167021 C32.4431194,11.4558298 33.1874925,13.1271277 33.1874925,15.3290213 C33.1874925,17.5332766 32.2516866,19.3171489 30.3824478,20.6845745 C29.8453284,21.0774043 29.221194,21.4111915 28.5179552,21.6914468 C26.7705373,22.3857872 24.5136866,22.7353191 21.7387015,22.7353191 C17.6173582,22.7353191 14.2775672,22.1472553 11.7217015,20.968766 C10.0264925,20.1894043 8.55752239,19.4344468 7.31637313,18.7046809 C6.12822388,18.005617 4.60941791,18.143383 3.60874627,19.0888511 C2.9909403,19.6714043 2.43246269,20.336617 1.93252239,21.0829149 C0.939761194,22.5644894 0.444567164,24.3302553 0.444567164,26.381 C0.444567164,29.7991702 2.46568657,32.610383 6.51267164,34.8122766 C10.5572836,37.0141702 16.5478657,38.1162979 24.486,38.1162979 C28.6081343,38.1162979 32.4043582,37.6408085 35.8770448,36.6921915 C39.3497313,35.7435745 42.3454179,34.3564681 44.8648955,32.533234 C47.382791,30.7107872 49.3477463,28.5088936 50.7605522,25.9259787 C52.1717761,23.3446383 52.8789701,20.4192766 52.8789701,17.1522553 C52.8789701,14.7220638 52.5728358,12.5949574 51.9629403,10.7725106 C51.3514627,8.9492766 50.5121642,7.35434043 49.4450448,5.98691489" id="path-1"></path>
        <linearGradient x1="66.8368595%" y1="49.3420179%" x2="84.5783906%" y2="34.2056344%" id="linearGradient-3">
            <stop stop-color="#007A66" offset="0%"></stop>
            <stop stop-color="#163E37" offset="100%"></stop>
        </linearGradient>
    </defs>
    <g id="Approved-Homepage" stroke="none" stroke-width="1" fill="none" fill-rule="evenodd">
        <g id="Homepage-1.2" transform="translate(-970.000000, -793.000000)">
            <g id="Group-28" transform="translate(970.000000, 793.000000)">
                <path d="M44.2162388,36.3111702 C43.3318507,35.8270213 42.4055373,35.4003404 41.4380896,35.0264043 L41.4317612,35.0303404 C41.7655821,35.1822766 42.7947313,35.6514681 44.2162388,36.3111702" id="Fill-33" fill="#4F4F4C"></path>
                <path d="M42.5431791,34.322617 C43.3160299,33.8738936 44.0548657,33.3677021 44.7612687,32.8048298 C44.0240149,33.3346383 43.2843881,33.8400426 42.5431791,34.322617" id="Fill-34" fill="#4F4F4C"></path>
                <g id="Group-37" transform="translate(0.000000, 34.687106)">
                    <mask id="mask-2" fill="white">
                        <use xlink:href="#path-1"></use>
                    </mask>
                    <g id="Clip-36"></g>
                    <path d="M49.4450448,5.98691489 C48.3747612,4.61948936 47.1541791,3.48114894 45.7809254,2.56874468 C45.2746567,2.23338298 44.7525672,1.91848936 44.2162388,1.62406383 C42.7947313,0.964361702 41.7655821,0.495170213 41.4317612,0.343234043 C31.4084328,6.57261702 21.7236716,8.60682979 21.7236716,8.60682979 L23.2266567,8.60682979 C26.8907761,8.60682979 29.4664179,9.17678723 30.9543731,10.3167021 C32.4431194,11.4558298 33.1874925,13.1271277 33.1874925,15.3290213 C33.1874925,17.5332766 32.2516866,19.3171489 30.3824478,20.6845745 C29.8453284,21.0774043 29.221194,21.4111915 28.5179552,21.6914468 C26.7705373,22.3857872 24.5136866,22.7353191 21.7387015,22.7353191 C17.6173582,22.7353191 14.2775672,22.1472553 11.7217015,20.968766 C10.0264925,20.1894043 8.55752239,19.4344468 7.31637313,18.7046809 C6.12822388,18.005617 4.60941791,18.143383 3.60874627,19.0888511 C2.9909403,19.6714043 2.43246269,20.336617 1.93252239,21.0829149 C0.939761194,22.5644894 0.444567164,24.3302553 0.444567164,26.381 C0.444567164,29.7991702 2.46568657,32.610383 6.51267164,34.8122766 C10.5572836,37.0141702 16.5478657,38.1162979 24.486,38.1162979 C28.6081343,38.1162979 32.4043582,37.6408085 35.8770448,36.6921915 C39.3497313,35.7435745 42.3454179,34.3564681 44.8648955,32.533234 C47.382791,30.7107872 49.3477463,28.5088936 50.7605522,25.9259787 C52.1717761,23.3446383 52.8789701,20.4192766 52.8789701,17.1522553 C52.8789701,14.7220638 52.5728358,12.5949574 51.9629403,10.7725106 C51.3514627,8.9492766 50.5121642,7.35434043 49.4450448,5.98691489" id="Fill-35" fill="url(#linearGradient-3)" mask="url(#mask-2)"></path>
                </g>
                <path d="M41.4380896,35.0264043 C41.8067164,34.7973191 42.1745522,34.5627234 42.5431791,34.322617 C42.1421194,34.5556383 41.7339403,34.7752766 41.3154776,34.9775957 L41.4380896,35.0264043" id="Fill-38" fill="#4F4F4C"></path>
                <path d="M41.4317612,35.0303404 L41.4380896,35.0264043 L41.3154776,34.9775957 C41.3154776,34.9775957 41.3558209,34.9957021 41.4317612,35.0303404" id="Fill-39" fill="#4F4F4C"></path>
                <path d="M44.2921791,5.41144681 C39.7128209,1.80512766 33.0340299,0 24.2573881,0 C17.6173582,0 12.3110299,0.893510638 8.34473134,2.67738298 C4.37447761,4.46282979 2.39053731,7.2543617 2.39053731,11.0511915 C2.39053731,12.8736383 2.80979104,14.4520426 3.6498806,15.7801064 C4.02404478,16.3728936 4.44329851,16.9231702 4.90843284,17.4325106 C5.85847761,18.473234 7.39626866,18.7141277 8.65165672,18.0670213 C9.82556716,17.4624255 11.1727164,16.9278936 12.6946866,16.4626383 C15.0591194,15.7423191 17.807209,15.3801915 20.9373731,15.3801915 C22.6998209,15.3801915 24.2423582,15.5344894 25.5626119,15.8415106 C26.871,16.145383 27.9626418,16.599617 28.8367463,17.2042128 C30.5920746,18.4197021 31.4701343,20.0146383 31.4701343,21.9890213 C31.4701343,26.1668723 28.7228358,28.2554043 23.2266567,28.2554043 L14.3194925,28.2554043 C13.0356269,28.2554043 11.8743731,29.0324043 11.4147761,30.2242766 C11.2739701,30.5895532 11.147403,30.9776596 11.0342836,31.3885957 C10.6917612,32.6418723 10.5201045,34.1423404 10.5201045,35.8892128 C10.5201045,37.5605106 10.7091642,39.0042979 11.0912388,40.2182128 C11.2098955,40.5952979 11.3348806,40.9534894 11.4677761,41.2935745 C11.9368657,42.4948936 13.0894179,43.2939362 14.3851493,43.2939362 L21.7236716,43.2939362 C21.7236716,43.2939362 31.4084328,41.2597234 41.4317612,35.0303404 C41.3558209,34.9957021 41.3154776,34.9775957 41.3154776,34.9775957 C41.7339403,34.7752766 42.1421194,34.5556383 42.5431791,34.322617 C43.2843881,33.8400426 44.0240149,33.3346383 44.7612687,32.8048298 C46.0277313,31.7940213 47.188194,30.6013617 48.2418657,29.2237021 C50.1878358,26.6801489 51.1616119,23.5839574 51.1616119,19.9382766 C51.1616119,13.8624043 48.8715373,9.02012766 44.2921791,5.41144681" id="Fill-40" fill="#007A66"></path>
            </g>
        </g>
    </g>
</svg>