<?xml version="1.0" encoding="utf-8"?>
<!-- Generator: Adobe Illustrator 16.0.0, SVG Export Plug-In . SVG Version: 6.00 Build 0)  -->
<!DOCTYPE svg PUBLIC "-//W3C//DTD SVG 1.1//EN" "http://www.w3.org/Graphics/SVG/1.1/DTD/svg11.dtd">
<svg version="1.1" xmlns="http://www.w3.org/2000/svg" xmlns:xlink="http://www.w3.org/1999/xlink" x="0px" y="0px" width="712px"
	 height="225px" viewBox="0 0 712 225" enable-background="new 0 0 712 225" xml:space="preserve">
<g id="Layer_2">
	<g>
		<image overflow="visible" opacity="0.3" width="641" height="223" xlink:href="1DDF9730.html"  transform="matrix(1 0 0 1 71 2)">
		</image>
		<g>
			<g>
				<g>
					<path fill="#CE9E57" d="M234.155,88.764c-5.584-1.915-11.552-2.936-17.774-2.936l-16.611,0.087
						c-3.344,17.193-14.152,31.749-28.959,40.249h45.953c8.616,0,15.637,6.989,15.637,15.637c0,8.616-7.021,15.637-15.637,15.637
						h-90.596c0,21.54,17.487,39.028,39.059,39.028l51.154,0.415c30.699,0,55.558-24.859,55.558-55.526
						C271.938,116.91,256.143,96.136,234.155,88.764z"/>
					<path fill="#CE9E57" d="M193.08,48.317h20.696c5.585,0,10.882-1.181,15.668-3.287C243.23,39,252.835,25.245,252.835,9.258
						L140.447,8.452C164.894,10.147,185.334,26.287,193.08,48.317z"/>
					<path fill="#CE9E57" d="M149.15,79.473l-16.475,0.086c-8.648,0-15.636-6.988-15.636-15.604c0-5.329,2.659-10.021,6.719-12.843
						l-45.077-0.134c-0.995,4.164-1.532,8.506-1.532,12.977c0,7.333,1.45,14.322,4.034,20.734h55.847
						C141.802,84.688,146.098,82.681,149.15,79.473z"/>
					<path fill="#CE9E57" d="M132.675,48.317h60.404c-7.746-22.031-28.186-38.17-52.632-39.865l-0.677-0.005L126.39,8.77
						c-23.376,2.616-42.345,19.753-47.709,42.208l45.077,0.134C126.287,49.354,129.356,48.317,132.675,48.317z"/>
				</g>
				<path fill="#CE9E57" d="M355.875,128.74c-1.097,1.795-1.989,3.255-2.599,4.253c-5.524-1.784-10.5-3.675-15.628-4.956
					c-4.148-1.036-8.469-0.703-12.608,0.535c-4.356,1.303-7.66,3.846-8.373,8.624c-0.704,4.722,0.794,8.848,4.907,11.368
					c3.231,1.98,6.833,3.406,10.374,4.817c3.299,1.314,6.768,2.199,10.1,3.44c1.784,0.664,3.508,1.563,5.135,2.558
					c7.304,4.469,10.52,10.953,9.234,19.485c-1.256,8.333-6.497,13.22-14.33,15.103c-11.36,2.73-22.307,1.246-32.553-4.569
					c-0.344-0.195-0.62-0.509-1.298-1.079c0.84-1.43,1.697-2.889,2.719-4.631c1.551,0.718,2.882,1.308,4.19,1.945
					c7.757,3.779,15.818,5.266,24.335,3.199c7.658-1.859,11.556-7.057,11.021-14.55c-0.25-3.505-1.683-6.533-4.582-8.344
					c-3.333-2.083-6.972-3.729-10.604-5.265c-2.634-1.113-5.542-1.565-8.203-2.626c-3.035-1.21-6.139-2.454-8.845-4.24
					c-6.526-4.308-8.884-10.627-7.416-18.211c1.364-7.046,6.487-10.69,12.904-12.382c9.059-2.388,17.945-1.125,26.49,2.568
					C352.095,126.582,353.825,127.654,355.875,128.74z"/>
				<path fill="#CE9E57" d="M485.082,195.115c0,5.809,0,11.768,0,17.929c-1.938,0-3.393,0-5.145,0c0-21.363,0-42.67,0-64.241
					c3.132-1.884,6.898-1.839,10.473-2.374c5.491-0.821,10.962-0.293,16.19,1.556c13.431,4.75,16.781,16.207,15.2,26.782
					c-1.813,12.116-10.971,19.832-23.691,20.323C494.034,195.247,489.948,195.115,485.082,195.115z M485.079,153.235
					c0,11.193,0.015,22.005-0.015,32.817c-0.005,1.86,0.805,2.8,2.646,2.905c3.677,0.21,7.393,0.881,11.021,0.56
					c9.173-0.814,14.862-5.441,16.727-13.292c1.024-4.315,0.987-8.722-0.458-12.979c-1.427-4.2-4.08-7.491-8.184-9.286
					C499.873,150.922,492.757,151.138,485.079,153.235z"/>
				<path fill="#CE9E57" d="M430.853,195.113c0,5.814,0,11.776,0,17.935c-1.998,0-3.44,0-5.152,0c0-21.404,0-42.615,0-63.873
					c0.132-0.159,0.264-0.481,0.478-0.551c9.951-3.226,19.876-3.868,29.568,0.817c7.427,3.59,11.301,9.793,11.982,17.9
					c0.25,2.975,0.222,6.087-0.363,9c-2.224,11.074-11.32,18.288-23.391,18.748C439.898,195.243,435.813,195.113,430.853,195.113z
					 M430.883,153.208c0,11.332-0.006,22.279,0.007,33.227c0.003,1.713,1.11,2.225,2.634,2.542
					c5.188,1.083,10.365,1.166,15.465-0.257c6.598-1.841,11.158-5.984,12.408-12.86c1.353-7.439,0.722-14.556-5.584-19.934
					c-0.925-0.789-2.007-1.458-3.119-1.951C445.732,150.892,438.64,151.222,430.883,153.208z"/>
				<path fill="#CE9E57" d="M579.621,172.027c0.566,6.433,2.839,11.264,7.831,14.645c4.711,3.19,9.994,3.763,15.374,2.645
					c3.844-0.799,7.554-2.245,11.843-3.563c0.646,1.125,1.488,2.588,2.493,4.335c-1.341,0.754-2.341,1.416-3.419,1.907
					c-7.213,3.286-14.769,4.243-22.445,2.38c-12.937-3.138-20.159-16.022-17.011-29.815c2.903-12.717,15.189-20.537,28.084-17.873
					c11.657,2.408,19.402,13.48,17.301,25.339C606.543,172.027,593.317,172.027,579.621,172.027z M580.531,166.433
					c11.148,0,22.024,0,32.903,0c-0.104-8.109-6.732-14.36-15.282-14.76C591.045,151.34,581.906,155.658,580.531,166.433z"/>
				<path fill="#CE9E57" d="M698.629,150.517c-0.928,1.891-1.633,3.329-2.256,4.598c-4.306-1.139-8.31-2.451-12.416-3.211
					c-3.8-0.703-7.669-0.371-11.272,1.28c-2.305,1.056-3.733,2.924-3.704,5.47c0.025,2.335,1.246,4.184,3.4,5.253
					c0.976,0.484,1.992,0.926,3.036,1.221c2.104,0.594,4.271,0.976,6.356,1.624c3.905,1.214,7.896,2.271,11.622,3.916
					c4.783,2.111,6.657,6.297,6.569,11.379c-0.088,5.034-2.541,8.758-7.1,10.633c-10.389,4.272-20.535,3.18-30.675-1.841
					c0.395-1.207,0.618-2.106,0.983-2.944c0.322-0.74,0.803-1.412,1.201-2.094c3.735,1.153,7.321,2.356,10.963,3.359
					c4.07,1.12,8.168,0.689,12.199-0.307c3.897-0.963,5.99-3.079,6.3-6.143c0.354-3.518-1.385-6.224-5.386-7.799
					c-2.277-0.896-4.722-1.362-7.08-2.057c-3.67-1.081-7.419-1.962-10.972-3.346c-4.786-1.864-7.345-5.478-7.352-10.788
					c-0.006-5.218,2.767-8.555,7.265-10.44C679.992,144.224,689.217,146.25,698.629,150.517z"/>
				<path fill="#CE9E57" d="M402.681,187.725c0-13.563,0-26.817,0-40.39c1.999,0,3.539,0,5.389,0c0.096,1.308,0.258,2.5,0.26,3.693
					c0.019,12.472,0.022,24.944,0.005,37.416c-0.006,3.771-0.026,3.833-3.585,4.711c-7.362,1.817-14.782,2.79-22.363,1.422
					c-6.505-1.174-9.949-5.324-11.305-11.489c-0.411-1.867-0.726-3.796-0.742-5.7c-0.08-9.456-0.053-18.913-0.038-28.369
					c0.001-0.515,0.228-1.03,0.399-1.76c1.54,0,2.98,0,4.864,0c0.133,1.488,0.364,2.933,0.373,4.38
					c0.04,6.99-0.103,13.982,0.075,20.968c0.083,3.257,0.5,6.555,1.211,9.735c0.812,3.628,3.303,5.82,7.003,6.707
					C390.297,190.505,396.143,189.531,402.681,187.725z"/>
				<path fill="#CE9E57" d="M538.75,194.162c-1.576,0-2.915,0-4.869,0c-0.004-23.628-0.004-47.103,0-70.798
					c1.203-0.135,1.981-0.279,2.761-0.292c0.67-0.011,1.342,0.13,1.97,0.199C539.442,126.378,539.597,189.494,538.75,194.162z"/>
				<path fill="#CE9E57" d="M637.336,154.425c0,13.251,0,26.364,0,39.68c-1.857,0-3.318,0-4.77,0
					c-0.843-2.974-1.101-38.478-0.331-44.231c5.052-2.396,15.134-3.525,22.901-2.454c0.076,1.345,0.156,2.778,0.262,4.644
					C649.473,153.064,643.426,151.753,637.336,154.425z"/>
				<path fill="#CE9E57" d="M561.337,194.176c-1.557,0-2.907,0-4.213,0c-0.954-3.104-1.103-42.561-0.163-46.911
					c1.382,0,2.821,0,4.239,0C562.306,150.393,562.475,189.625,561.337,194.176z"/>
				<path fill="#CE9E57" d="M559.015,135.93c-2.268-0.083-4.101-1.993-4.106-4.281c-0.007-2.367,2.194-4.493,4.533-4.378
					c2.257,0.111,4.01,2.03,4.013,4.392C563.457,134.309,561.67,136.027,559.015,135.93z"/>
			</g>
		</g>
	</g>
	<g>
		<image overflow="visible" opacity="0.3" width="714" height="206" xlink:href="1DDF9731.html" >
		</image>
		<g>
			<g>
				<path fill="#007A66" d="M121.934,6.542H6.458c0,16.877,9.934,31.451,24.289,38.177c5.418,2.522,11.49,3.955,17.875,3.955
					l25.604,0.076C79.589,26.295,98.558,9.158,121.934,6.542z"/>
				<path fill="#007A66" d="M123.758,55.567l13.272,0.04c9.249,0,16.753,7.505,16.753,16.753c0,4.492-1.77,8.559-4.633,11.569
					l46.163-0.242c0.714-3.668,1.101-7.453,1.101-11.327c0-6.862-1.177-13.451-3.334-19.586h-60.404
					C129.356,52.773,126.287,53.81,123.758,55.567z"/>
				<path fill="#007A66" d="M114.901,121c-2.904-0.958-5.712-2.17-8.393-3.606c-11.436-6.115-20.441-16.133-25.325-28.25H10.915
					v63.369c0,23.292,18.871,42.132,42.163,42.132c0.498,0,0.965,0,1.463-0.031c0,0,0,0,0.031,0v-62.652h79.843v-0.032
					c0.591,0.032,1.183,0.032,1.775,0.032c10.995,0,21.292-2.931,30.165-8.025h-33.679C126.453,123.936,120.485,122.915,114.901,121
					z"/>
				<path fill="#007A66" d="M195.313,83.687l-46.163,0.242c-3.052,3.208-7.349,5.215-12.12,5.215H81.183
					c4.883,12.118,13.889,22.136,25.325,28.25c2.681,1.436,5.489,2.648,8.393,3.606c5.584,1.915,11.552,2.936,17.774,2.936h33.679
					C181.161,115.436,191.969,100.88,195.313,83.687z"/>
				<path fill="#007A66" d="M326.304,60.45c0,10.012,0,19.575,0,29.001c-3.756,1.151-9.842,1.159-13.443,0.078
					c0-26.201,0-52.467,0-78.979c1.271-0.12,2.322-0.304,3.374-0.306c9.603-0.021,19.206-0.049,28.809,0.007
					c4.717,0.028,9.229,1.089,13.489,3.159c8.269,4.019,12.762,10.655,13.207,19.787c0.444,9.098-2.681,16.706-10.453,21.944
					c-4.901,3.303-10.403,4.854-16.292,4.941c-4.938,0.073-9.877,0.004-14.816,0.036C329.109,60.125,328.041,60.295,326.304,60.45z
					 M326.307,22.985c0,8.379-0.328,16.083,0.244,24.136c7.027,0.036,13.673,0.808,20.288-0.529
					c1.458-0.295,2.935-0.704,4.278-1.331c3.636-1.697,5.616-4.597,5.965-8.642c0.596-6.914-2.476-11.241-9.304-12.748
					C340.896,22.354,333.935,23.152,326.307,22.985z"/>
				<path fill="#007A66" d="M587.667,66.636c-14.441,0-28.669,0-43.397,0c0.658,4.699,3.098,7.568,6.742,9.474
					c4.525,2.366,9.463,2.986,14.397,2.061c4.521-0.849,8.922-2.342,13.901-3.694c1.589,3.237,3.426,6.978,5.345,10.886
					c-5.762,3.445-11.608,5.445-17.78,5.821c-4.876,0.297-9.971,0.282-14.692-0.797c-12.809-2.927-22.095-13.326-22.096-28.479
					c-0.001-14.081,9.5-25.619,22.857-28.452C573.409,29.113,590.669,45.26,587.667,66.636z M545.12,55.134
					c7.781,1.018,26.195,0.598,28.516-0.606c-1.415-6.314-6.98-10.104-14.531-9.896C551.92,44.831,546.298,48.961,545.12,55.134z"/>
				<path fill="#007A66" d="M454.965,91.395c-14.42-0.01-26.261-8.906-29.121-22.415c-4.548-21.475,11.91-35.121,26.563-36.025
					c17.164-1.06,28.858,9.591,31.79,21.696C489.485,76.487,472.475,92.165,454.965,91.395z M471.106,62.227
					c0.002-9.271-6.819-16.181-15.986-16.192c-9.132-0.011-16.054,6.97-16.038,16.176c0.016,9.217,6.928,16.229,16.012,16.245
					C464.181,78.472,471.104,71.455,471.106,62.227z"/>
				<path fill="#007A66" d="M656.945,34.869c3.36,0,6.344,0,9.922,0c0-6.832,0-13.343,0-20.296
					c4.615-0.377,8.654-0.214,13.195-0.145c0,6.686,0,13.19,0,20.212c7.315,0.692,14.254-0.044,21.34,0.473c0,3.92,0,7.56,0,11.688
					c-6.861,0.747-13.82-0.139-20.892,0.548c-0.11,1.605-0.259,2.802-0.265,4c-0.026,5.071-0.026,10.142,0.001,15.213
					c0.007,1.367,0.032,2.752,0.242,4.098c0.724,4.629,2.961,6.749,7.647,7.049c3.004,0.192,6.027,0.094,9.042,0.118
					c1.344,0.01,2.688,0.001,4.189,0.001c1.186,4.066,0.671,7.822,0.436,11.802c-1.007,0.243-1.897,0.656-2.778,0.639
					c-5.883-0.113-11.791-0.028-17.641-0.557c-9.648-0.872-14.05-5.731-14.34-15.605c-0.209-7.121-0.039-14.252-0.069-21.378
					c-0.007-1.619-0.143-3.237-0.241-5.308c-3.292-0.202-6.363-0.39-9.789-0.6C656.945,42.98,656.945,39.243,656.945,34.869z"/>
				<path fill="#007A66" d="M642.799,75.101c1.834,4.166,3.48,7.908,5.206,11.828c-3.478,2.469-7.349,3.302-11.234,3.938
					c-5.724,0.937-11.47,1.001-17.093-0.666c-12.688-3.763-20.756-15.047-20.481-28.528c0.279-13.71,8.61-24.617,21.907-27.795
					c9.151-2.188,18.125-1.038,26.966,3.397c-1.766,4.022-3.396,7.738-5.167,11.771c-1.427-0.5-2.678-0.901-3.901-1.374
					c-4.324-1.67-8.805-2.228-13.317-1.276c-8.305,1.752-13.017,8.803-12.178,17.849c0.771,8.317,7.011,13.947,15.82,14.199
					C633.925,78.577,638.228,77.287,642.799,75.101z"/>
				<path fill="#007A66" d="M489.588,111.93c-0.505-3.859-0.995-7.61-1.548-11.838c1.564,0.119,2.728,0.196,3.888,0.298
					c5.984,0.528,8.66-1.47,9.685-7.419c0.275-1.606,0.256-3.275,0.258-4.915c0.017-16.038,0.01-32.076,0.011-48.113
					c0-1.483,0-2.966,0-4.724c4.54,0,8.705,0,13.146,0c0.128,1.129,0.351,2.182,0.352,3.234c0.021,16.723,0.114,33.447-0.057,50.169
					c-0.041,4.073-0.646,8.211-1.562,12.188c-1.467,6.363-5.715,10.074-12.187,11.215
					C497.668,112.713,493.778,113.304,489.588,111.93z"/>
				<path fill="#007A66" d="M383.476,36.339c10.529-2.179,20.714-2.725,31.347-2.159c0,4.155,0,8.162,0,12.391
					c-5.852,0.913-11.853-0.664-17.917,1.549c0,13.771,0,27.572,0,41.664c-4.695,0.955-8.972,0.455-13.43,0.36
					C383.476,72.003,383.476,54.348,383.476,36.339z"/>
				<path fill="#007A66" d="M516.35,18.329c0.036,4.476-2.823,7.171-7.616,7.181c-4.919,0.01-7.611-2.539-7.823-6.982
					c-0.189-3.971,2.56-7.048,7.636-7.343C513.045,10.923,516.315,14.061,516.35,18.329z"/>
			</g>
		</g>
	</g>
	<g>
		<g opacity="0.3">
			
				<image overflow="visible" opacity="0.2" width="119" height="89" xlink:href="1DDF9736.html"  transform="matrix(1 0 0 1 165 80)">
			</image>
		</g>
		<g opacity="0.3">
			<image overflow="visible" opacity="0.2" width="90" height="66" xlink:href="1DDF9737.html"  transform="matrix(1 0 0 1 71 31)">
			</image>
		</g>
		<defs>
			<filter id="Adobe_OpacityMaskFilter" filterUnits="userSpaceOnUse" x="23.63" y="6.542" width="98.304" height="42.208">
				<feFlood  style="flood-color:white;flood-opacity:1" result="back"/>
				<feBlend  in="SourceGraphic" in2="back" mode="normal"/>
			</filter>
		</defs>
		<mask maskUnits="userSpaceOnUse" x="23.63" y="6.542" width="98.304" height="42.208" id="SVGID_1_">
			<g filter="url(#Adobe_OpacityMaskFilter)">
				<defs>
					<filter id="Adobe_OpacityMaskFilter_1_" filterUnits="userSpaceOnUse" x="23.63" y="6.542" width="98.304" height="42.208">
						<feFlood  style="flood-color:white;flood-opacity:1" result="back"/>
						<feBlend  in="SourceGraphic" in2="back" mode="normal"/>
					</filter>
				</defs>
				<mask maskUnits="userSpaceOnUse" x="23.63" y="6.542" width="98.304" height="42.208" id="SVGID_1_">
					<g filter="url(#Adobe_OpacityMaskFilter_1_)">
					</g>
				</mask>
				<linearGradient id="SVGID_2_" gradientUnits="userSpaceOnUse" x1="53.6401" y1="8.3823" x2="142.7636" y2="76.7793">
					<stop  offset="0.1393" style="stop-color:#000000"/>
					<stop  offset="0.8927" style="stop-color:#FFFFFF"/>
				</linearGradient>
				<path mask="url(#SVGID_1_)" fill="url(#SVGID_2_)" d="M121.934,6.542H56.698c-33.577,0-40.307,31.451-25.951,38.177
					c5.418,2.522,11.49,3.955,17.875,3.955l25.604,0.076C79.589,26.295,98.558,9.158,121.934,6.542z"/>
			</g>
		</mask>
		<path fill="none" d="M121.934,6.542H56.698c-33.577,0-40.307,31.451-25.951,38.177c5.418,2.522,11.49,3.955,17.875,3.955
			l25.604,0.076C79.589,26.295,98.558,9.158,121.934,6.542z"/>
	</g>
</g>
<g id="Layer_1" display="none">
	<rect x="357.504" y="387.592" display="inline" fill="#F2F2F2" width="962" height="529.086"/>
	<g>
		
			<image display="inline" overflow="visible" opacity="0.2" width="55" height="47" xlink:href="1DDF9735.html"  transform="matrix(1 0 0 1 111 49)">
		</image>
	</g>
	<rect x="-565.496" y="318.504" display="inline" fill="#CE9E57" width="44" height="44"/>
	<rect x="-565.496" y="256.504" display="inline" fill="#007A66" width="44" height="44"/>
	<rect x="-606.496" y="387.576" display="inline" fill="#1A1A1A" width="962" height="529.085"/>
	<g display="inline">
		<g>
			<path fill="#FFFFFF" d="M-211.576,637.05c-4.001-1.372-8.277-2.104-12.736-2.104l-11.902,0.063
				c-2.396,12.319-10.141,22.749-20.75,28.84h32.927c6.174,0,11.205,5.008,11.205,11.204c0,6.174-5.031,11.204-11.205,11.204
				h-64.916c0,15.435,12.531,27.965,27.988,27.965l36.654,0.298c21.997,0,39.81-17.813,39.81-39.787
				C-184.503,657.218-195.822,642.332-211.576,637.05z"/>
			<path fill="#FFFFFF" d="M-241.008,608.068h14.829c4.001,0,7.797-0.846,11.227-2.355c9.878-4.321,16.761-14.177,16.761-25.633
				l-80.53-0.577C-261.205,580.718-246.559,592.282-241.008,608.068z"/>
			<path fill="#FFFFFF" d="M-272.486,630.393l-11.805,0.062c-6.197,0-11.204-5.008-11.204-11.182c0-3.818,1.905-7.181,4.814-9.202
				l-32.299-0.096c-0.713,2.983-1.098,6.095-1.098,9.298c0,5.254,1.039,10.263,2.89,14.856h40.017
				C-277.751,634.129-274.673,632.691-272.486,630.393z"/>
			<path fill="#FFFFFF" d="M-284.291,608.068h43.282c-5.55-15.786-20.197-27.351-37.713-28.565l-0.485-0.003l-9.588,0.23
				c-16.75,1.875-30.341,14.154-34.185,30.244l32.299,0.096C-288.868,608.811-286.669,608.068-284.291,608.068z"/>
			<path fill="#FFFFFF" d="M-124.359,665.694c-0.786,1.286-1.425,2.332-1.862,3.048c-3.958-1.278-7.524-2.634-11.198-3.551
				c-2.972-0.742-6.068-0.504-9.034,0.383c-3.122,0.934-5.488,2.756-5.999,6.18c-0.504,3.383,0.569,6.34,3.516,8.146
				c2.316,1.419,4.896,2.44,7.434,3.451c2.364,0.942,4.85,1.576,7.237,2.465c1.278,0.477,2.513,1.12,3.679,1.834
				c5.233,3.202,7.538,7.848,6.616,13.961c-0.9,5.971-4.655,9.473-10.268,10.821c-8.14,1.957-15.983,0.893-23.326-3.273
				c-0.246-0.14-0.444-0.364-0.93-0.772c0.602-1.024,1.215-2.07,1.948-3.318c1.112,0.515,2.065,0.937,3.002,1.394
				c5.559,2.708,11.334,3.773,17.437,2.292c5.487-1.332,8.28-5.056,7.897-10.426c-0.179-2.511-1.206-4.681-3.283-5.979
				c-2.389-1.492-4.996-2.672-7.599-3.771c-1.887-0.798-3.972-1.122-5.878-1.882c-2.174-0.867-4.398-1.759-6.338-3.039
				c-4.676-3.086-6.366-7.614-5.314-13.049c0.977-5.049,4.649-7.66,9.247-8.872c6.491-1.712,12.858-0.807,18.981,1.84
				C-127.068,664.148-125.828,664.916-124.359,665.694z"/>
			<path fill="#FFFFFF" d="M-31.777,713.254c0,4.162,0,8.433,0,12.848c-1.388,0-2.432,0-3.687,0c0-15.308,0-30.575,0-46.032
				c2.244-1.349,4.943-1.317,7.504-1.7c3.934-0.589,7.854-0.211,11.601,1.114c9.624,3.404,12.025,11.613,10.892,19.19
				c-1.298,8.682-7.861,14.211-16.976,14.563C-25.363,713.35-28.291,713.254-31.777,713.254z M-31.78,683.246
				c0,8.02,0.011,15.767-0.01,23.514c-0.004,1.333,0.576,2.007,1.896,2.082c2.635,0.15,5.297,0.632,7.897,0.401
				c6.572-0.583,10.649-3.899,11.985-9.524c0.734-3.092,0.707-6.25-0.329-9.3c-1.021-3.01-2.923-5.368-5.863-6.654
				C-21.179,681.589-26.278,681.743-31.78,683.246z"/>
			<path fill="#FFFFFF" d="M-70.635,713.253c0,4.166,0,8.438,0,12.851c-1.432,0-2.465,0-3.692,0c0-15.337,0-30.535,0-45.767
				c0.095-0.114,0.189-0.346,0.343-0.396c7.13-2.311,14.241-2.771,21.186,0.586c5.322,2.572,8.098,7.018,8.586,12.826
				c0.179,2.132,0.159,4.361-0.26,6.448c-1.593,7.935-8.111,13.104-16.76,13.434C-64.153,713.347-67.081,713.253-70.635,713.253z
				 M-70.613,683.227c0,8.12-0.005,15.964,0.005,23.809c0.001,1.228,0.795,1.594,1.887,1.822c3.717,0.775,7.427,0.835,11.081-0.185
				c4.728-1.319,7.996-4.288,8.892-9.215c0.969-5.331,0.517-10.43-4.001-14.283c-0.663-0.565-1.438-1.045-2.234-1.398
				C-59.973,681.567-65.055,681.804-70.613,683.227z"/>
			<path fill="#FFFFFF" d="M35.963,696.711c0.406,4.609,2.034,8.071,5.611,10.494c3.375,2.285,7.161,2.696,11.016,1.895
				c2.754-0.572,5.412-1.608,8.485-2.552c0.463,0.806,1.066,1.854,1.787,3.105c-0.961,0.541-1.677,1.015-2.45,1.366
				c-5.167,2.355-10.582,3.041-16.083,1.706c-9.27-2.249-14.445-11.48-12.189-21.364c2.081-9.111,10.884-14.715,20.123-12.807
				c8.353,1.726,13.903,9.66,12.397,18.156C55.254,696.711,45.777,696.711,35.963,696.711z M36.615,692.703
				c7.988,0,15.782,0,23.577,0c-0.075-5.811-4.824-10.29-10.95-10.576C44.149,681.889,37.601,684.981,36.615,692.703z"/>
			<path fill="#FFFFFF" d="M121.237,681.298c-0.665,1.355-1.17,2.386-1.616,3.295c-3.085-0.816-5.954-1.756-8.896-2.301
				c-2.723-0.504-5.496-0.266-8.078,0.917c-1.651,0.757-2.674,2.096-2.654,3.92c0.019,1.673,0.893,2.998,2.437,3.764
				c0.699,0.347,1.427,0.664,2.176,0.875c1.507,0.426,3.06,0.699,4.554,1.163c2.798,0.87,5.659,1.628,8.328,2.806
				c3.427,1.513,4.77,4.513,4.707,8.153c-0.063,3.607-1.82,6.276-5.087,7.619c-7.444,3.062-14.714,2.278-21.979-1.318
				c0.283-0.865,0.443-1.51,0.705-2.11c0.231-0.53,0.575-1.011,0.861-1.5c2.677,0.827,5.246,1.689,7.855,2.407
				c2.917,0.803,5.853,0.494,8.742-0.22c2.792-0.69,4.292-2.207,4.514-4.401c0.254-2.521-0.992-4.46-3.859-5.589
				c-1.632-0.642-3.383-0.976-5.074-1.474c-2.629-0.774-5.316-1.405-7.861-2.397c-3.429-1.335-5.263-3.925-5.267-7.729
				c-0.004-3.739,1.981-6.13,5.205-7.48C107.883,676.789,114.493,678.241,121.237,681.298z"/>
			<path fill="#FFFFFF" d="M-90.821,707.959c0-9.718,0-19.215,0-28.94c1.433,0,2.536,0,3.861,0c0.068,0.937,0.185,1.791,0.186,2.646
				c0.013,8.938,0.016,17.874,0.003,26.811c-0.004,2.702-0.019,2.746-2.569,3.376c-5.275,1.302-10.592,1.999-16.024,1.019
				c-4.661-0.842-7.129-3.814-8.101-8.232c-0.294-1.337-0.52-2.72-0.531-4.084c-0.058-6.775-0.038-13.552-0.027-20.327
				c0-0.369,0.163-0.738,0.286-1.261c1.104,0,2.136,0,3.485,0c0.095,1.065,0.261,2.102,0.267,3.138
				c0.029,5.009-0.073,10.02,0.054,15.024c0.06,2.334,0.358,4.697,0.868,6.976c0.582,2.6,2.367,4.17,5.018,4.806
				C-99.695,709.951-95.506,709.253-90.821,707.959z"/>
			<path fill="#FFFFFF" d="M6.678,712.572c-1.129,0-2.089,0-3.489,0c-0.002-16.931-0.002-33.752,0-50.73
				c0.862-0.096,1.419-0.199,1.978-0.208c0.479-0.008,0.961,0.093,1.411,0.142C7.174,664.002,7.284,709.227,6.678,712.572z"/>
			<path fill="#FFFFFF" d="M77.318,684.099c0,9.495,0,18.891,0,28.433c-1.331,0-2.378,0-3.417,0
				c-0.604-2.131-0.789-27.571-0.238-31.693c3.621-1.718,10.844-2.526,16.41-1.759c0.055,0.964,0.113,1.99,0.188,3.328
				C86.015,683.123,81.682,682.184,77.318,684.099z"/>
			<path fill="#FFFFFF" d="M22.862,712.582c-1.115,0-2.083,0-3.019,0c-0.683-2.224-0.79-30.496-0.117-33.614c0.99,0,2.021,0,3.037,0
				C23.556,681.209,23.678,709.32,22.862,712.582z"/>
			<path fill="#FFFFFF" d="M21.198,670.846c-1.625-0.059-2.938-1.428-2.942-3.067c-0.005-1.696,1.572-3.219,3.248-3.137
				c1.617,0.079,2.874,1.454,2.875,3.147C24.381,669.685,23.101,670.915,21.198,670.846z"/>
		</g>
		<g>
			<path fill="#FFFFFF" d="M-291.987,578.135h-82.743c0,12.093,7.118,22.535,17.404,27.355c3.882,1.807,8.233,2.833,12.808,2.833
				l18.346,0.055C-322.329,592.288-308.737,580.01-291.987,578.135z"/>
			<path fill="#FFFFFF" d="M-290.68,613.264l9.51,0.027c6.626,0,12.004,5.378,12.004,12.005c0,3.219-1.268,6.132-3.32,8.289
				l33.078-0.173c0.511-2.629,0.789-5.34,0.789-8.116c0-4.917-0.843-9.639-2.389-14.034h-43.282
				C-286.669,611.262-288.868,612.004-290.68,613.264z"/>
			<path fill="#FFFFFF" d="M-297.027,660.148c-2.081-0.686-4.093-1.555-6.014-2.584c-8.194-4.381-14.647-11.56-18.146-20.242h-50.35
				v45.406c0,16.69,13.521,30.189,30.211,30.189c0.357,0,0.692,0,1.049-0.022c0,0,0,0,0.022,0v-44.894h57.211v-0.022
				c0.424,0.022,0.848,0.022,1.271,0.022c7.878,0,15.257-2.1,21.614-5.75h-24.132C-288.75,662.252-293.025,661.521-297.027,660.148z
				"/>
			<path fill="#FFFFFF" d="M-239.408,633.412l-33.078,0.173c-2.187,2.299-5.265,3.737-8.684,3.737h-40.017
				c3.499,8.683,9.952,15.861,18.146,20.242c1.921,1.029,3.933,1.898,6.014,2.584c4.001,1.372,8.277,2.104,12.736,2.104h24.132
				C-249.549,656.161-241.805,645.731-239.408,633.412z"/>
			<path fill="#FFFFFF" d="M-145.548,616.762c0,7.174,0,14.026,0,20.781c-2.691,0.824-7.052,0.83-9.633,0.056
				c0-18.774,0-37.595,0-56.592c0.911-0.087,1.664-0.218,2.417-0.22c6.881-0.015,13.762-0.035,20.643,0.006
				c3.38,0.02,6.613,0.78,9.665,2.263c5.925,2.88,9.145,7.635,9.464,14.179c0.318,6.519-1.921,11.97-7.491,15.724
				c-3.512,2.366-7.454,3.478-11.674,3.54c-3.538,0.053-7.077,0.003-10.616,0.026C-143.539,616.529-144.304,616.651-145.548,616.762
				z M-145.546,589.917c0,6.004-0.235,11.524,0.175,17.294c5.035,0.025,9.797,0.579,14.537-0.379
				c1.045-0.211,2.103-0.505,3.065-0.954c2.605-1.216,4.024-3.293,4.274-6.191c0.427-4.954-1.774-8.055-6.667-9.135
				C-135.092,589.464-140.081,590.037-145.546,589.917z"/>
			<path fill="#FFFFFF" d="M41.729,621.194c-10.348,0-20.543,0-31.096,0c0.472,3.367,2.219,5.423,4.831,6.788
				c3.243,1.696,6.781,2.141,10.316,1.477c3.24-0.607,6.393-1.678,9.96-2.646c1.139,2.319,2.455,5,3.83,7.8
				c-4.128,2.469-8.317,3.901-12.74,4.171c-3.494,0.213-7.144,0.202-10.528-0.571c-9.178-2.098-15.832-9.549-15.832-20.406
				c0-10.09,6.807-18.356,16.378-20.387C31.512,594.308,43.88,605.877,41.729,621.194z M11.242,612.952
				c5.575,0.729,18.77,0.429,20.432-0.434c-1.013-4.524-5.001-7.24-10.412-7.091C16.115,605.57,12.085,608.529,11.242,612.952z"/>
			<path fill="#FFFFFF" d="M-53.358,638.936c-10.332-0.008-18.816-6.382-20.866-16.062c-3.259-15.387,8.534-25.165,19.033-25.813
				c12.299-0.759,20.679,6.872,22.779,15.546C-28.623,628.253-40.812,639.486-53.358,638.936z M-41.792,618.035
				c0.002-6.644-4.886-11.595-11.455-11.603c-6.543-0.008-11.503,4.995-11.492,11.591c0.011,6.604,4.964,11.629,11.473,11.641
				C-46.754,629.675-41.793,624.647-41.792,618.035z"/>
			<path fill="#FFFFFF" d="M91.369,598.432c2.408,0,4.545,0,7.109,0c0-4.896,0-9.561,0-14.542c3.307-0.271,6.202-0.153,9.456-0.104
				c0,4.791,0,9.451,0,14.482c5.242,0.496,10.213-0.031,15.291,0.339c0,2.809,0,5.417,0,8.375c-4.917,0.534-9.903-0.1-14.97,0.393
				c-0.079,1.15-0.185,2.008-0.189,2.866c-0.019,3.634-0.019,7.268,0,10.9c0.005,0.98,0.023,1.972,0.174,2.937
				c0.518,3.317,2.122,4.836,5.479,5.051c2.153,0.138,4.319,0.067,6.479,0.085c0.963,0.008,1.926,0.001,3.002,0.001
				c0.85,2.914,0.48,5.604,0.313,8.456c-0.722,0.175-1.36,0.471-1.991,0.458c-4.216-0.08-8.448-0.02-12.64-0.398
				c-6.914-0.625-10.067-4.106-10.275-11.182c-0.149-5.103-0.028-10.212-0.05-15.318c-0.005-1.16-0.103-2.319-0.173-3.804
				c-2.359-0.145-4.56-0.279-7.014-0.43C91.369,604.244,91.369,601.566,91.369,598.432z"/>
			<path fill="#FFFFFF" d="M81.232,627.26c1.314,2.985,2.494,5.666,3.73,8.475c-2.492,1.77-5.266,2.367-8.05,2.822
				c-4.101,0.671-8.219,0.718-12.247-0.477c-9.093-2.696-14.873-10.782-14.676-20.441c0.2-9.824,6.169-17.639,15.697-19.917
				c6.558-1.567,12.987-0.743,19.322,2.435c-1.265,2.882-2.434,5.544-3.702,8.435c-1.022-0.358-1.919-0.646-2.796-0.984
				c-3.098-1.196-6.309-1.597-9.542-0.914c-5.951,1.255-9.327,6.308-8.726,12.79c0.553,5.959,5.024,9.993,11.336,10.174
				C74.874,629.75,77.957,628.826,81.232,627.26z"/>
			<path fill="#FFFFFF" d="M-28.549,653.648c-0.362-2.765-0.713-5.452-1.109-8.481c1.121,0.085,1.954,0.14,2.785,0.213
				c4.288,0.379,6.206-1.053,6.939-5.315c0.198-1.151,0.184-2.347,0.185-3.522c0.012-11.491,0.007-22.983,0.007-34.475
				c0-1.063,0-2.125,0-3.385c3.253,0,6.238,0,9.421,0c0.091,0.81,0.251,1.563,0.252,2.317c0.015,11.983,0.082,23.967-0.041,35.948
				c-0.03,2.918-0.463,5.884-1.12,8.733c-1.051,4.559-4.095,7.218-8.731,8.035C-22.76,654.211-25.547,654.634-28.549,653.648z"/>
			<path fill="#FFFFFF" d="M-104.583,599.485c7.545-1.562,14.842-1.952,22.461-1.546c0,2.977,0,5.848,0,8.878
				c-4.192,0.654-8.493-0.476-12.838,1.11c0,9.867,0,19.756,0,29.854c-3.365,0.685-6.429,0.326-9.623,0.258
				C-104.583,625.04-104.583,612.39-104.583,599.485z"/>
			<path fill="#FFFFFF" d="M-9.373,586.581c0.025,3.207-2.023,5.139-5.458,5.145c-3.525,0.007-5.454-1.819-5.605-5.003
				c-0.136-2.845,1.834-5.05,5.471-5.262C-11.741,581.273-9.398,583.522-9.373,586.581z"/>
		</g>
	</g>
	<g display="inline">
		<g>
			<path fill="#1A1A1A" d="M750.424,637.065c-4.001-1.372-8.277-2.104-12.736-2.104l-11.902,0.063
				c-2.396,12.319-10.141,22.749-20.75,28.84h32.927c6.174,0,11.204,5.008,11.204,11.204c0,6.174-5.03,11.204-11.204,11.204h-64.916
				c0,15.435,12.53,27.966,27.987,27.966l36.654,0.297c21.997,0,39.81-17.813,39.81-39.787
				C777.497,657.233,766.179,642.348,750.424,637.065z"/>
			<path fill="#1A1A1A" d="M720.991,608.084h14.83c4.001,0,7.797-0.846,11.227-2.355c9.878-4.321,16.761-14.177,16.761-25.632
				l-80.53-0.578C700.795,580.733,715.441,592.298,720.991,608.084z"/>
			<path fill="#1A1A1A" d="M689.515,630.408l-11.806,0.062c-6.196,0-11.203-5.008-11.203-11.182c0-3.818,1.904-7.18,4.814-9.202
				l-32.3-0.096c-0.713,2.983-1.098,6.095-1.098,9.298c0,5.254,1.039,10.263,2.891,14.856h40.017
				C684.249,634.145,687.327,632.707,689.515,630.408z"/>
			<path fill="#1A1A1A" d="M677.709,608.084h43.282c-5.55-15.786-20.196-27.351-37.713-28.565l-0.485-0.003l-9.587,0.231
				c-16.75,1.874-30.342,14.153-34.186,30.243l32.3,0.096C673.132,608.826,675.331,608.084,677.709,608.084z"/>
			<path fill="#1A1A1A" d="M837.641,665.71c-0.786,1.287-1.426,2.332-1.862,3.048c-3.959-1.278-7.523-2.634-11.198-3.551
				c-2.973-0.742-6.068-0.504-9.034,0.383c-3.121,0.934-5.488,2.756-5.999,6.18c-0.505,3.383,0.568,6.34,3.516,8.146
				c2.315,1.419,4.896,2.44,7.434,3.451c2.364,0.942,4.85,1.576,7.237,2.465c1.277,0.477,2.514,1.12,3.679,1.834
				c5.234,3.202,7.538,7.848,6.617,13.961c-0.9,5.972-4.655,9.473-10.268,10.821c-8.141,1.957-15.984,0.893-23.326-3.273
				c-0.246-0.14-0.443-0.364-0.93-0.772c0.602-1.024,1.216-2.07,1.948-3.318c1.111,0.515,2.065,0.937,3.002,1.394
				c5.559,2.708,11.335,3.773,17.438,2.292c5.486-1.331,8.279-5.056,7.896-10.425c-0.179-2.512-1.205-4.682-3.282-5.979
				c-2.389-1.492-4.996-2.671-7.599-3.771c-1.887-0.798-3.972-1.122-5.878-1.882c-2.175-0.867-4.398-1.759-6.338-3.038
				c-4.676-3.087-6.366-7.614-5.313-13.05c0.977-5.049,4.648-7.66,9.246-8.872c6.491-1.711,12.858-0.807,18.981,1.84
				C834.932,664.164,836.172,664.932,837.641,665.71z"/>
			<path fill="#1A1A1A" d="M930.223,713.27c0,4.162,0,8.433,0,12.848c-1.389,0-2.432,0-3.687,0c0-15.308,0-30.575,0-46.031
				c2.244-1.35,4.943-1.318,7.505-1.701c3.934-0.589,7.854-0.21,11.6,1.114c9.624,3.404,12.025,11.613,10.893,19.19
				c-1.299,8.682-7.861,14.211-16.977,14.563C936.637,713.365,933.709,713.27,930.223,713.27z M930.22,683.262
				c0,8.02,0.011,15.768-0.01,23.515c-0.004,1.332,0.576,2.006,1.896,2.082c2.635,0.149,5.297,0.631,7.897,0.4
				c6.572-0.583,10.649-3.898,11.985-9.524c0.734-3.092,0.707-6.25-0.329-9.3c-1.021-3.01-2.923-5.367-5.863-6.654
				C940.82,681.604,935.722,681.759,930.22,683.262z"/>
			<path fill="#1A1A1A" d="M891.365,713.269c0,4.166,0,8.438,0,12.851c-1.433,0-2.466,0-3.692,0c0-15.337,0-30.535,0-45.767
				c0.095-0.114,0.189-0.346,0.343-0.396c7.13-2.311,14.241-2.771,21.187,0.586c5.321,2.572,8.097,7.018,8.585,12.826
				c0.18,2.132,0.159,4.361-0.26,6.448c-1.593,7.936-8.111,13.104-16.76,13.434C897.847,713.362,894.919,713.269,891.365,713.269z
				 M891.387,683.242c0,8.12-0.005,15.964,0.005,23.809c0.002,1.228,0.796,1.594,1.888,1.822c3.717,0.775,7.427,0.835,11.08-0.185
				c4.728-1.319,7.996-4.288,8.892-9.215c0.969-5.331,0.517-10.43-4.001-14.283c-0.663-0.565-1.438-1.045-2.235-1.397
				C902.026,681.583,896.945,681.819,891.387,683.242z"/>
			<path fill="#1A1A1A" d="M997.963,696.727c0.406,4.609,2.034,8.071,5.611,10.494c3.376,2.286,7.161,2.696,11.017,1.896
				c2.754-0.572,5.412-1.609,8.485-2.553c0.464,0.806,1.066,1.854,1.786,3.105c-0.96,0.541-1.677,1.015-2.449,1.367
				c-5.168,2.354-10.582,3.04-16.083,1.705c-9.27-2.249-14.445-11.48-12.189-21.363c2.081-9.112,10.885-14.716,20.124-12.807
				c8.353,1.725,13.903,9.659,12.396,18.155C1017.254,696.727,1007.777,696.727,997.963,696.727z M998.615,692.719
				c7.988,0,15.781,0,23.577,0c-0.075-5.811-4.825-10.29-10.95-10.576C1006.148,681.904,999.601,684.998,998.615,692.719z"/>
			<path fill="#1A1A1A" d="M1083.236,681.313c-0.664,1.355-1.17,2.386-1.615,3.295c-3.086-0.816-5.955-1.756-8.896-2.301
				c-2.723-0.504-5.496-0.266-8.078,0.918c-1.651,0.757-2.675,2.095-2.654,3.919c0.019,1.674,0.893,2.998,2.438,3.764
				c0.698,0.347,1.427,0.664,2.176,0.875c1.507,0.426,3.06,0.699,4.554,1.163c2.799,0.87,5.659,1.628,8.328,2.806
				c3.427,1.513,4.77,4.513,4.706,8.153c-0.062,3.607-1.82,6.276-5.086,7.619c-7.444,3.062-14.715,2.279-21.98-1.318
				c0.283-0.865,0.443-1.51,0.705-2.109c0.23-0.53,0.574-1.012,0.86-1.5c2.677,0.826,5.246,1.688,7.855,2.406
				c2.917,0.803,5.853,0.494,8.741-0.22c2.793-0.69,4.293-2.206,4.514-4.401c0.255-2.521-0.992-4.46-3.858-5.589
				c-1.632-0.642-3.384-0.976-5.073-1.474c-2.63-0.774-5.316-1.405-7.861-2.397c-3.43-1.335-5.264-3.925-5.268-7.729
				c-0.005-3.739,1.981-6.13,5.205-7.48C1069.883,676.805,1076.492,678.257,1083.236,681.313z"/>
			<path fill="#1A1A1A" d="M871.179,707.975c0-9.718,0-19.215,0-28.94c1.433,0,2.536,0,3.861,0c0.068,0.937,0.185,1.792,0.186,2.646
				c0.014,8.938,0.017,17.874,0.004,26.811c-0.004,2.702-0.019,2.746-2.568,3.376c-5.276,1.302-10.593,1.999-16.024,1.019
				c-4.661-0.842-7.129-3.814-8.101-8.232c-0.294-1.337-0.52-2.72-0.531-4.084c-0.058-6.775-0.038-13.552-0.027-20.327
				c0.001-0.369,0.163-0.738,0.286-1.261c1.104,0,2.135,0,3.484,0c0.096,1.065,0.262,2.102,0.268,3.138
				c0.029,5.009-0.073,10.02,0.055,15.024c0.059,2.334,0.358,4.697,0.867,6.976c0.581,2.6,2.366,4.17,5.018,4.806
				C862.306,709.967,866.494,709.269,871.179,707.975z"/>
			<path fill="#1A1A1A" d="M968.678,712.588c-1.129,0-2.089,0-3.489,0c-0.002-16.931-0.002-33.752,0.001-50.729
				c0.861-0.097,1.419-0.2,1.978-0.209c0.479-0.008,0.961,0.093,1.411,0.142C969.174,664.018,969.284,709.242,968.678,712.588z"/>
			<path fill="#1A1A1A" d="M1039.318,684.114c0,9.495,0,18.891,0,28.433c-1.331,0-2.378,0-3.418,0
				c-0.604-2.131-0.788-27.57-0.237-31.693c3.62-1.718,10.844-2.526,16.41-1.758c0.054,0.963,0.112,1.99,0.188,3.327
				C1048.015,683.139,1043.682,682.2,1039.318,684.114z"/>
			<path fill="#1A1A1A" d="M984.861,712.598c-1.115,0-2.082,0-3.018,0c-0.684-2.224-0.79-30.496-0.117-33.613
				c0.99,0,2.021,0,3.037,0C985.556,681.226,985.678,709.337,984.861,712.598z"/>
			<path fill="#1A1A1A" d="M983.197,670.861c-1.624-0.059-2.938-1.428-2.941-3.067c-0.005-1.695,1.572-3.219,3.248-3.137
				c1.617,0.08,2.873,1.454,2.875,3.147C986.381,669.7,985.101,670.932,983.197,670.861z"/>
		</g>
		<g>
			<path fill="#1A1A1A" d="M670.013,578.15H587.27c0,12.093,7.118,22.535,17.404,27.355c3.882,1.807,8.233,2.833,12.808,2.833
				l18.346,0.055C639.671,592.305,653.263,580.025,670.013,578.15z"/>
			<path fill="#1A1A1A" d="M671.32,613.279l9.51,0.028c6.627,0,12.004,5.377,12.004,12.004c0,3.219-1.268,6.133-3.319,8.289
				l33.077-0.173c0.512-2.629,0.789-5.34,0.789-8.116c0-4.917-0.844-9.639-2.39-14.034h-43.282
				C675.331,611.277,673.132,612.02,671.32,613.279z"/>
			<path fill="#1A1A1A" d="M664.973,660.164c-2.08-0.686-4.093-1.555-6.014-2.584c-8.194-4.381-14.646-11.56-18.146-20.242h-50.351
				v45.406c0,16.69,13.521,30.189,30.212,30.189c0.356,0,0.691,0,1.048-0.022c0,0,0,0,0.022,0v-44.894h57.211v-0.021
				c0.424,0.021,0.848,0.021,1.271,0.021c7.878,0,15.257-2.1,21.614-5.75h-24.133C673.25,662.268,668.975,661.536,664.973,660.164z"
				/>
			<path fill="#1A1A1A" d="M722.592,633.428l-33.077,0.173c-2.188,2.299-5.266,3.737-8.685,3.737h-40.017
				c3.499,8.683,9.951,15.861,18.146,20.242c1.921,1.029,3.934,1.898,6.014,2.584c4.002,1.372,8.277,2.104,12.736,2.104h24.133
				C712.451,656.177,720.195,645.747,722.592,633.428z"/>
			<path fill="#1A1A1A" d="M816.451,616.777c0,7.174,0,14.026,0,20.781c-2.69,0.825-7.052,0.83-9.633,0.056
				c0-18.774,0-37.595,0-56.592c0.911-0.086,1.665-0.218,2.418-0.22c6.881-0.015,13.762-0.035,20.643,0.006
				c3.381,0.02,6.613,0.78,9.666,2.264c5.924,2.879,9.145,7.634,9.463,14.178c0.318,6.519-1.921,11.97-7.49,15.724
				c-3.512,2.366-7.454,3.478-11.674,3.54c-3.538,0.053-7.077,0.003-10.616,0.026C818.462,616.545,817.696,616.667,816.451,616.777z
				 M816.454,589.933c-0.001,6.004-0.235,11.524,0.174,17.294c5.035,0.026,9.798,0.579,14.538-0.379
				c1.045-0.211,2.103-0.505,3.064-0.953c2.605-1.217,4.024-3.294,4.274-6.192c0.427-4.954-1.774-8.055-6.667-9.135
				C826.907,589.48,821.92,590.053,816.454,589.933z"/>
			<path fill="#1A1A1A" d="M1003.729,621.21c-10.348,0-20.543,0-31.096,0c0.472,3.367,2.219,5.423,4.83,6.788
				c3.243,1.696,6.781,2.141,10.317,1.477c3.239-0.607,6.393-1.678,9.96-2.646c1.139,2.319,2.455,5,3.83,7.8
				c-4.129,2.469-8.317,3.901-12.74,4.171c-3.494,0.213-7.145,0.202-10.527-0.571c-9.178-2.098-15.832-9.549-15.832-20.406
				c-0.001-10.09,6.807-18.356,16.377-20.387C993.512,594.324,1005.88,605.894,1003.729,621.21z M973.242,612.969
				c5.575,0.729,18.77,0.428,20.432-0.435c-1.013-4.524-5.001-7.24-10.411-7.091C978.114,605.586,974.086,608.545,973.242,612.969z"
				/>
			<path fill="#1A1A1A" d="M908.643,638.951c-10.333-0.008-18.816-6.382-20.867-16.062c-3.258-15.387,8.534-25.165,19.033-25.813
				c12.299-0.759,20.679,6.872,22.779,15.546C933.377,628.269,921.188,639.502,908.643,638.951z M920.208,618.051
				c0.002-6.644-4.886-11.594-11.454-11.603c-6.544-0.008-11.504,4.995-11.492,11.591c0.012,6.604,4.964,11.629,11.473,11.641
				C915.246,629.69,920.206,624.663,920.208,618.051z"/>
			<path fill="#1A1A1A" d="M1053.369,598.448c2.408,0,4.545,0,7.109,0c0-4.896,0-9.562,0-14.543
				c3.307-0.271,6.201-0.153,9.455-0.104c0,4.791,0,9.451,0,14.482c5.241,0.496,10.213-0.031,15.29,0.339c0,2.809,0,5.417,0,8.375
				c-4.916,0.535-9.902-0.1-14.969,0.393c-0.079,1.15-0.186,2.009-0.189,2.866c-0.02,3.634-0.02,7.268,0,10.9
				c0.005,0.98,0.023,1.972,0.174,2.937c0.519,3.317,2.122,4.836,5.479,5.051c2.152,0.138,4.318,0.067,6.479,0.085
				c0.964,0.008,1.927,0.001,3.002,0.001c0.85,2.914,0.481,5.604,0.313,8.457c-0.722,0.174-1.359,0.47-1.991,0.457
				c-4.215-0.08-8.448-0.02-12.64-0.398c-6.914-0.625-10.067-4.106-10.275-11.182c-0.149-5.103-0.027-10.212-0.049-15.318
				c-0.005-1.16-0.103-2.319-0.173-3.804c-2.359-0.145-4.561-0.279-7.015-0.43C1053.369,604.26,1053.369,601.582,1053.369,598.448z"
				/>
			<path fill="#1A1A1A" d="M1043.232,627.275c1.313,2.985,2.494,5.666,3.73,8.475c-2.492,1.77-5.266,2.367-8.05,2.822
				c-4.101,0.672-8.219,0.718-12.247-0.477c-9.093-2.696-14.873-10.782-14.676-20.441c0.199-9.824,6.169-17.639,15.696-19.917
				c6.558-1.567,12.987-0.743,19.322,2.435c-1.265,2.882-2.434,5.544-3.702,8.435c-1.022-0.358-1.919-0.646-2.796-0.984
				c-3.098-1.196-6.309-1.597-9.542-0.914c-5.95,1.255-9.327,6.308-8.726,12.79c0.552,5.959,5.023,9.993,11.336,10.174
				C1036.874,629.767,1039.957,628.842,1043.232,627.275z"/>
			<path fill="#1A1A1A" d="M933.451,653.665c-0.361-2.766-0.713-5.453-1.109-8.482c1.121,0.085,1.954,0.14,2.785,0.214
				c4.288,0.378,6.206-1.054,6.939-5.316c0.198-1.151,0.184-2.347,0.186-3.522c0.012-11.491,0.007-22.983,0.007-34.475
				c0-1.063,0-2.125,0-3.385c3.253,0,6.238,0,9.421,0c0.092,0.81,0.251,1.563,0.252,2.317c0.016,11.983,0.081,23.967-0.041,35.948
				c-0.029,2.918-0.462,5.884-1.119,8.733c-1.051,4.559-4.095,7.218-8.731,8.035C939.24,654.227,936.453,654.649,933.451,653.665z"
				/>
			<path fill="#1A1A1A" d="M857.418,599.501c7.544-1.562,14.842-1.952,22.461-1.546c0,2.977,0,5.848,0,8.878
				c-4.193,0.654-8.493-0.476-12.838,1.11c0,9.867,0,19.757,0,29.854c-3.365,0.685-6.43,0.326-9.623,0.258
				C857.418,625.056,857.418,612.405,857.418,599.501z"/>
			<path fill="#1A1A1A" d="M952.627,586.597c0.025,3.207-2.023,5.139-5.458,5.145c-3.524,0.007-5.453-1.819-5.605-5.003
				c-0.136-2.845,1.835-5.05,5.472-5.262C950.259,581.289,952.602,583.538,952.627,586.597z"/>
		</g>
	</g>
	<text transform="matrix(1 0 0 1 -489.3247 280.3975)" display="inline" font-family="'ArialMT'" font-size="24.6043">007A66</text>
	<text transform="matrix(1 0 0 1 -496.1377 351.3975)" display="inline" font-family="'ArialMT'" font-size="24.6043">CE9E57</text>
</g>
</svg>
