<svg width="1920" height="1073" viewBox="0 0 1920 1073" fill="none" xmlns="http://www.w3.org/2000/svg">
<path d="M1920 0H0V1073H1920V0Z" fill="#102424"/>
<path d="M1920 0H0V1072.86H1920V0Z" fill="url(#paint0_linear_809_857)"/>
<path d="M0 119.32L1920 1073H0V119.32Z" fill="url(#paint1_linear_809_857)"/>
<path d="M1920 0L0 594.21V1073H1920V0Z" fill="url(#paint2_linear_809_857)"/>
<path d="M1920 403.789L0 717.848V1073H1920V403.789Z" fill="url(#paint3_linear_809_857)"/>
<path d="M1920 119.182L696.33 1072.86H1920V119.182Z" fill="url(#paint4_linear_809_857)"/>
<defs>
<linearGradient id="paint0_linear_809_857" x1="962.9" y1="-2.47594" x2="962.9" y2="1070.39" gradientUnits="userSpaceOnUse">
<stop stop-color="#007A66" stop-opacity="0.23"/>
<stop offset="1" stop-color="#007A66" stop-opacity="0"/>
</linearGradient>
<linearGradient id="paint1_linear_809_857" x1="962.9" y1="113.218" x2="962.9" y2="1066.9" gradientUnits="userSpaceOnUse">
<stop stop-color="#007A66" stop-opacity="0.23"/>
<stop offset="1" stop-color="#007A66" stop-opacity="0"/>
</linearGradient>
<linearGradient id="paint2_linear_809_857" x1="962.9" y1="1.09186" x2="962.9" y2="1074.09" gradientUnits="userSpaceOnUse">
<stop stop-color="#007A66" stop-opacity="0.23"/>
<stop offset="1" stop-color="#007A66" stop-opacity="0"/>
</linearGradient>
<linearGradient id="paint3_linear_809_857" x1="962.9" y1="400.69" x2="962.9" y2="1069.9" gradientUnits="userSpaceOnUse">
<stop stop-color="#007A66" stop-opacity="0.23"/>
<stop offset="1" stop-color="#007A66" stop-opacity="0"/>
</linearGradient>
<linearGradient id="paint4_linear_809_857" x1="1315.41" y1="113.079" x2="1315.41" y2="1066.76" gradientUnits="userSpaceOnUse">
<stop stop-color="#007A66" stop-opacity="0.23"/>
<stop offset="1" stop-color="#007A66" stop-opacity="0"/>
</linearGradient>
</defs>
</svg>
